# xmcd
#
# Track frame offsets: 
#        150
#        11766
#        21338
#        34153
#        42375
#        59594
#        67558
#        81511
#        92950
#        101266
#
# Disc length: 1498 seconds
#
# Revision: 0
# Processed by: cddbd v1.5.2PL0 Copyright (c) Steve Scherf et al.
# Submitted via: ExactAudioCopy v1.3
#
DISCID=7e05d80a
DTITLE=Hank Williams Jr. and The Cheatin' Hearts - Just Pickin' No Singi
DTITLE=n'
DYEAR=1973
DGENRE=Country
TTITLE0=Tijuana Grass
TTITLE1=Cajun Baby
TTITLE2=My Sweet Love Ain't Around
TTITLE3=Bocephus Banjo
TTITLE4=A Touch Of Love
TTITLE5=El Cumbanchero
TTITLE6=A Lover's Dream
TTITLE7=One AM
TTITLE8=Fire Ball Mail
TTITLE9=I'm So Lonesome I Could Cry
EXTD=
EXTT0=
EXTT1=
EXTT2=
EXTT3=
EXTT4=
EXTT5=
EXTT6=
EXTT7=
EXTT8=
EXTT9=
PLAYORDER=
